<?xml version="1.0" encoding="utf-8"?>
<!-- Generator: Adobe Illustrator 22.1.0, SVG Export Plug-In . SVG Version: 6.00 Build 0)  -->
<svg version="1.1" id="Layer_1" xmlns="http://www.w3.org/2000/svg" xmlns:xlink="http://www.w3.org/1999/xlink" x="0px" y="0px"
	 viewBox="0 0 500 500" style="enable-background:new 0 0 500 500;" xml:space="preserve">
<style type="text/css">
	.st0{fill:#7D6F8E;}
	.st1{fill:#919090;}
	.st2{opacity:0.35;enable-background:new    ;}
	.st3{fill:#909090;}
	.st4{fill:#6600FF;}
	.st5{fill:#FFFFFF;}
	.st6{fill:#FF6666;}
	.st7{fill:#484848;}
	.st8{opacity:0.7;fill:#FFFFFF;enable-background:new    ;}
	.st9{fill:#CAC4D1;}
	.st10{fill:#1E1E1E;}
	.st11{fill:#45C688;}
	.st12{fill:#D35858;}
	.st13{fill:#DADADA;}
	.st14{fill:#212121;}
	.st15{fill:#505050;}
	.st16{opacity:0.5;fill:#30194D;enable-background:new    ;}
	.st17{fill:#B2B2B2;}
	.st18{fill:#624F7F;}
</style>
<path id="Path_127" class="st0" d="M3.2,5.7l2.6,2.6c0.4,0.4,1,0.4,1.4,0l2.6-2.6c0.4-0.4,0.4-1,0-1.4C9.6,4.1,9.3,4,9,4H3.9
	c-0.6,0-1,0.5-1,1C2.9,5.2,3,5.5,3.2,5.7z"/>
<path id="Path_127_3_" class="st0" d="M2.9,71.8c0,0.6,0.4,1,1,1H9c0.3,0,0.5-0.1,0.7-0.3c0.4-0.4,0.4-1,0-1.4l-2.6-2.6
	c-0.4-0.4-1-0.4-1.4,0l-2.6,2.6C3,71.3,2.9,71.5,2.9,71.8z"/>
<path id="Path_4" class="st1" d="M36.3,7.6H25.2L30,2.7c0.4-0.4,0.4-1,0-1.4c-0.4-0.4-1-0.4-1.4,0L22,7.9c-0.4,0.4-0.4,1,0,1.4
	l6.6,6.6c0.4,0.4,1.1,0.3,1.4-0.1c0.3-0.4,0.3-0.9,0-1.3l-4.9-4.9h11.2c0.6,0,1-0.4,1-1C37.3,8,36.9,7.6,36.3,7.6z"/>
<path id="Path_121" class="st2" d="M50,6.6c-1.1,0-2,0.9-2,2s0.9,2,2,2s2-0.9,2-2C52,7.5,51.1,6.6,50,6.6z M62,6.6c-1.1,0-2,0.9-2,2
	s0.9,2,2,2s2-0.9,2-2C64,7.5,63.1,6.6,62,6.6z M56,6.6c-1.1,0-2,0.9-2,2s0.9,2,2,2s2-0.9,2-2C58,7.5,57.1,6.6,56,6.6z"/>
<path id="Path_127_1_" class="st3" d="M117.7,13l4.3-4.3c0.6-0.6,0.6-1.7,0-2.3l-4.3-4.3c-0.6-0.7-1.7-0.7-2.4,0
	c-0.3,0.3-0.5,0.7-0.5,1.2v8.6c0,0.9,0.8,1.7,1.7,1.7C117,13.5,117.4,13.4,117.7,13z"/>
<path id="Path_127_2_" class="st3" d="M90.8,13.5c0.9,0,1.7-0.7,1.7-1.7V3.3c0-0.4-0.2-0.9-0.5-1.2c-0.7-0.6-1.7-0.6-2.4,0l-4.3,4.3
	c-0.6,0.6-0.6,1.7,0,2.3l4.3,4.3C89.9,13.4,90.4,13.5,90.8,13.5z"/>
<path id="Path_45" class="st4" d="M20.5,27.5c-2.5-1.6-5.8-1.2-7.7,1.1c-1.9-2.3-5.2-2.7-7.7-1.1c-1.4,1-2.3,2.6-2.3,4.3
	c-0.1,3.9,3.3,7,8.6,11.8l0.1,0.1c0.8,0.7,1.9,0.7,2.7,0l0.1-0.1c5.2-4.8,8.7-7.9,8.6-11.8C22.8,30.1,21.9,28.5,20.5,27.5z"/>
<path id="Path_155" class="st4" d="M48,26.5c-5.5,0-10,4.5-10,10s4.5,10,10,10s10-4.5,10-10S53.5,26.5,48,26.5z M45.3,40.8l-3.6-3.6
	c-0.4-0.4-0.3-1.1,0.1-1.4c0.4-0.3,0.9-0.3,1.3,0l2.9,2.9l6.9-6.9c0.4-0.4,1.1-0.3,1.4,0.1c0.3,0.4,0.3,0.9,0,1.3l-7.6,7.6
	C46.3,41.2,45.7,41.2,45.3,40.8z"/>
<path class="st5" d="M82.1,40.8l-3.6-3.6c-0.4-0.4-0.3-1.1,0.1-1.4c0.4-0.3,0.9-0.3,1.3,0l2.9,2.9l6.9-6.9c0.4-0.4,1.1-0.3,1.4,0.1
	c0.3,0.4,0.3,0.9,0,1.3l-7.6,7.6C83.2,41.2,82.5,41.2,82.1,40.8z"/>
<path class="st5" d="M256.1,32.1l-8.8-8.8c-0.9-1-0.8-2.6,0.3-3.5c0.9-0.8,2.3-0.8,3.2,0l7.1,7.1l16.8-16.8c1-0.9,2.6-0.8,3.5,0.3
	c0.8,0.9,0.8,2.3,0,3.2l-18.6,18.6C258.6,33.1,257,33.1,256.1,32.1z"/>
<path id="Path_186" class="st6" d="M112.7,44.3c0,1.1,0.9,2,2,2h8c1.1,0,2-0.9,2-2v-10c0-1.1-0.9-2-2-2h-8c-1.1,0-2,0.9-2,2V44.3z
	 M124.7,29.3h-2.5l-0.7-0.7c-0.2-0.2-0.4-0.3-0.7-0.3h-4.2c-0.3,0-0.5,0.1-0.7,0.3l-0.7,0.7h-2.5c-0.6,0-1,0.4-1,1s0.4,1,1,1h12
	c0.6,0,1-0.4,1-1C125.7,29.8,125.2,29.3,124.7,29.3z"/>
<path class="st4" d="M148.9,41l-3.6-3.6c-0.4-0.4-0.3-1.1,0.1-1.4c0.4-0.3,0.9-0.3,1.3,0l2.9,2.9l6.9-6.9c0.4-0.4,1.1-0.3,1.4,0.1
	c0.3,0.4,0.3,0.9,0,1.3l-7.6,7.6C149.9,41.4,149.3,41.4,148.9,41z"/>
<path id="Path_119" class="st5" d="M142.3,15v3c0,0.3,0.2,0.5,0.5,0.5h3c0.1,0,0.3-0.1,0.4-0.1l10.9-10.9l-3.8-3.8l-10.9,10.9
	C142.4,14.8,142.3,14.9,142.3,15z M160,4.6c0.4-0.4,0.4-1,0-1.4l-2.3-2.3c-0.4-0.4-1-0.4-1.4,0l-1.8,1.8l3.8,3.8L160,4.6z"/>
<g>
	<path class="st7" d="M199,28.3c-4.7,0-9,2.6-12.1,6.8c-0.3,0.3-0.3,0.8,0,1.2c3.2,4.2,7.4,6.8,12.1,6.8c4.7,0,9-2.6,12.1-6.8
		c0.3-0.3,0.3-0.8,0-1.2C208,30.9,203.7,28.3,199,28.3z M199.3,40.9c-3.1,0.2-5.7-2.4-5.5-5.5c0.2-2.6,2.3-4.7,4.8-4.8
		c3.1-0.2,5.7,2.4,5.5,5.5C204,38.6,201.9,40.7,199.3,40.9z M199.2,38.5c-1.7,0.1-3.1-1.3-3-3c0.1-1.4,1.2-2.5,2.6-2.6
		c1.7-0.1,3.1,1.3,3,3C201.7,37.3,200.6,38.4,199.2,38.5z"/>
</g>
<g>
	<path class="st7" d="M207.8,17.8c0.3,0.3,0.3,0.7,0.1,1l0,0c-0.3,0.3-0.7,0.3-1,0L189.5,2.2c-0.3-0.3-0.3-0.7-0.1-1l0,0
		c0.3-0.3,0.7-0.3,1,0L207.8,17.8z"/>
	<g>
		<path class="st7" d="M202.7,13.3c-0.9,0.9-2.1,1.5-3.4,1.6c-3.1,0.2-5.7-2.4-5.5-5.5c0.1-1.2,0.6-2.4,1.4-3.2l-2.4-2.3
			c-2.3,1.2-4.3,3-6,5.2c-0.3,0.3-0.3,0.8,0,1.2c3.2,4.2,7.4,6.8,12.1,6.8c2.2,0,4.2-0.5,6.1-1.5L202.7,13.3z"/>
		<path class="st7" d="M198.8,6.9c-0.2,0-0.5,0.1-0.7,0.1l3.6,3.4c0-0.2,0.1-0.4,0.1-0.6C201.9,8.2,200.5,6.8,198.8,6.9z"/>
		<path class="st7" d="M199.2,12.5c0.7,0,1.4-0.4,1.8-0.9l-4-3.8c-0.4,0.5-0.7,1.1-0.8,1.7C196.1,11.2,197.5,12.6,199.2,12.5z"/>
		<path class="st7" d="M211.1,9.1c-3.2-4.2-7.4-6.8-12.1-6.8c-1.7,0-3.3,0.3-4.8,0.9l2.1,2c0.7-0.4,1.5-0.7,2.4-0.8
			c3.1-0.2,5.7,2.4,5.5,5.5c-0.1,0.8-0.3,1.5-0.6,2.1l2.8,2.7c1.8-1.1,3.4-2.7,4.8-4.6C211.4,10,211.4,9.5,211.1,9.1z"/>
	</g>
</g>
<path id="Path_125" class="st4" d="M322,22.2h-12c-0.6,0-1-0.4-1-1s0.4-1,1-1h12c0.6,0,1,0.4,1,1S322.6,22.2,322,22.2z"/>
<path id="Path_123" class="st4" d="M368.5,22.2h-5v5c0,0.6-0.4,1-1,1s-1-0.4-1-1v-5h-5c-0.6,0-1-0.4-1-1s0.4-1,1-1h5v-5
	c0-0.6,0.4-1,1-1s1,0.4,1,1v5h5c0.6,0,1,0.4,1,1S369.1,22.2,368.5,22.2z"/>
<path id="Path_157" class="st8" d="M419.4,14.9c-0.4-0.4-1-0.4-1.4,0l-4.9,4.9l-4.9-4.9c-0.4-0.4-1.1-0.3-1.4,0.1
	c-0.3,0.4-0.3,0.9,0,1.3l4.9,4.9l-4.9,4.9c-0.4,0.4-0.3,1.1,0.1,1.4c0.4,0.3,0.9,0.3,1.3,0l4.9-4.9l4.9,4.9c0.4,0.4,1.1,0.3,1.4-0.1
	c0.3-0.4,0.3-0.9,0-1.3l-4.9-4.9l4.9-4.9C419.8,15.9,419.8,15.3,419.4,14.9z"/>
<g>
	<path id="Rectangle_464" class="st9" d="M40.8,63.7h2c1.9,0,3.5,1.6,3.5,3.5v6.5c0,1.9-1.6,3.5-3.5,3.5h-2c-1.9,0-3.5-1.6-3.5-3.5
		v-6.5C37.3,65.3,38.9,63.7,40.8,63.7z"/>
	<path id="Rectangle_465" class="st9" d="M54.3,63.7h2c1.9,0,3.5,1.6,3.5,3.5v6.5c0,1.9-1.6,3.5-3.5,3.5h-2c-1.9,0-3.5-1.6-3.5-3.5
		v-6.5C50.8,65.3,52.4,63.7,54.3,63.7z"/>
	<path id="Rectangle_466" class="st9" d="M67.8,63.7h2c1.9,0,3.5,1.6,3.5,3.5v6.5c0,1.9-1.6,3.5-3.5,3.5h-2c-1.9,0-3.5-1.6-3.5-3.5
		v-6.5C64.3,65.3,65.9,63.7,67.8,63.7z"/>
</g>
<path id="Rectangle_462" class="st9" d="M104.8,63.7h29c1.9,0,3.5,1.6,3.5,3.5v6.5c0,1.9-1.6,3.5-3.5,3.5h-29
	c-1.9,0-3.5-1.6-3.5-3.5v-6.5C101.3,65.3,102.9,63.7,104.8,63.7z"/>
<path id="round-keyboard_arrow_down-24px" class="st10" d="M165.6,67.5l3.9,3.9l3.9-3.9c0.4-0.4,1-0.5,1.4-0.1
	c0.4,0.4,0.5,1,0.1,1.4c0,0-0.1,0.1-0.1,0.1l-4.6,4.6c-0.4,0.4-1,0.4-1.4,0l-4.6-4.6c-0.4-0.4-0.4-1,0-1.4
	C164.6,67.1,165.2,67.1,165.6,67.5z"/>
<path id="Path_45_1_" class="st4" d="M213.9,62.7c-2.5-1.6-5.8-1.2-7.7,1.1c-1.9-2.3-5.2-2.7-7.7-1.1c-1.4,1-2.3,2.6-2.3,4.3
	c-0.1,3.9,3.3,7,8.6,11.8l0.1,0.1c0.8,0.7,1.9,0.7,2.7,0l0.1-0.1c5.3-4.8,8.7-7.9,8.6-11.8C216.1,65.2,215.3,63.6,213.9,62.7z
	 M206.3,77.2l-0.1,0.1l-0.1-0.1c-4.8-4.3-7.9-7.2-7.9-10.1c0-1.9,1.4-3.5,3.3-3.5c0.1,0,0.1,0,0.2,0c1.6,0,3,0.9,3.6,2.4h1.9
	c0.6-1.4,2-2.4,3.6-2.4c1.9,0,3.5,1.4,3.5,3.3c0,0.1,0,0.1,0,0.2C214.2,70.1,211.1,72.9,206.3,77.2z"/>
<g>
	<g>
		<g>
			<path class="st11" d="M12.9,209.9H9.1c-0.5,0-0.9,0.4-0.9,0.9v16.9c0,0.5,0.4,0.9,0.9,0.9h3.8c0.5,0,0.9-0.4,0.9-0.9v-16.9
				C13.8,210.3,13.4,209.9,12.9,209.9z"/>
		</g>
	</g>
	<g>
		<g>
			<path class="st11" d="M34.6,209.9c-0.2,0-7.2,0-7.2,0l1-2.7c0.7-1.9,0.2-4.7-1.7-5.7c-0.6-0.3-1.5-0.5-2.2-0.3
				c-0.4,0.1-0.7,0.4-1,0.7c-0.2,0.4-0.2,0.9-0.3,1.3c-0.2,1.1-0.8,2.2-1.6,3c-1.5,1.4-6,5.5-6,5.5v15h15.7c2.1,0,3.5-2.4,2.5-4.2
				c1.2-0.8,1.7-2.5,0.9-3.8c1.2-0.8,1.7-2.5,0.9-3.8C37.8,213.7,37.1,210.3,34.6,209.9z"/>
		</g>
	</g>
</g>
<g>
	<g>
		<g>
			<path class="st5" d="M12.9,148.9H9.1c-0.5,0-0.9,0.4-0.9,0.9v16.9c0,0.5,0.4,0.9,0.9,0.9h3.8c0.5,0,0.9-0.4,0.9-0.9v-16.9
				C13.8,149.4,13.4,148.9,12.9,148.9z"/>
		</g>
	</g>
	<g>
		<g>
			<path class="st5" d="M34.6,148.9c-0.2,0-7.2,0-7.2,0l1-2.7c0.7-1.9,0.2-4.7-1.7-5.7c-0.6-0.3-1.5-0.5-2.2-0.3
				c-0.4,0.1-0.7,0.4-1,0.7c-0.2,0.4-0.2,0.9-0.3,1.3c-0.2,1.1-0.8,2.2-1.6,3c-1.5,1.4-6,5.5-6,5.5v15h15.7c2.1,0,3.5-2.4,2.5-4.2
				c1.2-0.8,1.7-2.5,0.9-3.8c1.2-0.8,1.7-2.5,0.9-3.8C37.8,152.8,37.1,149.4,34.6,148.9z"/>
		</g>
	</g>
</g>
<g>
	<g>
		<g>
			<path class="st12" d="M12.9,274.4H9.1c-0.5,0-0.9,0.4-0.9,0.9v16.9c0,0.5,0.4,0.9,0.9,0.9h3.8c0.5,0,0.9-0.4,0.9-0.9v-16.9
				C13.8,274.8,13.4,274.4,12.9,274.4z"/>
		</g>
	</g>
	<g>
		<g>
			<path class="st12" d="M34.6,274.4c-0.2,0-7.2,0-7.2,0l1-2.7c0.7-1.9,0.2-4.7-1.7-5.7c-0.6-0.3-1.5-0.5-2.2-0.3
				c-0.4,0.1-0.7,0.4-1,0.7c-0.2,0.4-0.2,0.9-0.3,1.3c-0.2,1.1-0.8,2.2-1.6,3c-1.5,1.4-6,5.5-6,5.5v15h15.7c2.1,0,3.5-2.4,2.5-4.2
				c1.2-0.8,1.7-2.5,0.9-3.8c1.2-0.8,1.7-2.5,0.9-3.8C37.8,278.2,37.1,274.8,34.6,274.4z"/>
		</g>
	</g>
</g>
<g>
	<g>
		<g>
			<path class="st13" d="M12.9,337.4H9.1c-0.5,0-0.9,0.4-0.9,0.9v16.9c0,0.5,0.4,0.9,0.9,0.9h3.8c0.5,0,0.9-0.4,0.9-0.9v-16.9
				C13.8,337.8,13.4,337.4,12.9,337.4z"/>
		</g>
	</g>
	<g>
		<g>
			<path class="st13" d="M34.6,337.4c-0.2,0-7.2,0-7.2,0l1-2.7c0.7-1.9,0.2-4.7-1.7-5.7c-0.6-0.3-1.5-0.5-2.2-0.3
				c-0.4,0.1-0.7,0.4-1,0.7c-0.2,0.4-0.2,0.9-0.3,1.3c-0.2,1.1-0.8,2.2-1.6,3c-1.5,1.4-6,5.5-6,5.5v15h15.7c2.1,0,3.5-2.4,2.5-4.2
				c1.2-0.8,1.7-2.5,0.9-3.8c1.2-0.8,1.7-2.5,0.9-3.8C37.8,341.2,37.1,337.8,34.6,337.4z"/>
		</g>
	</g>
</g>
<g>
	<g>
		<g>
			<path class="st11" d="M102.2,216.9V200c0-0.5,0.4-0.9,0.9-0.9h3.7c0.5,0,0.9,0.4,0.9,0.9v16.9c0,0.5-0.4,0.9-0.9,0.9h-3.7
				C102.7,217.8,102.2,217.4,102.2,216.9z"/>
		</g>
	</g>
	<g>
		<g>
			<path class="st11" d="M80.5,212.6c-0.7-1.3-0.3-3,0.9-3.8c-0.7-1.3-0.3-3,0.9-3.8c-1-1.8,0.3-4.2,2.4-4.2h15.6v15
				c0,0-4.5,4.1-6,5.5c-0.8,0.8-1.4,1.9-1.6,3c-0.1,0.5-0.1,0.9-0.3,1.3c-0.2,0.4-0.6,0.6-1,0.7c-0.7,0.2-1.5,0-2.2-0.3
				c-1.9-1-2.3-3.9-1.6-5.7l1-2.7c0,0-7,0-7.2,0C79.1,217.4,78.4,214,80.5,212.6z"/>
		</g>
	</g>
</g>
<g>
	<g>
		<g>
			<path class="st12" d="M98.5,282.5v-16.9c0-0.5,0.4-0.9,0.9-0.9h3.7c0.5,0,0.9,0.4,0.9,0.9v16.9c0,0.5-0.4,0.9-0.9,0.9h-3.7
				C98.9,283.4,98.5,283,98.5,282.5z"/>
		</g>
	</g>
	<g>
		<g>
			<path class="st12" d="M76.8,278.2c-0.7-1.3-0.3-3,0.9-3.8c-0.7-1.3-0.3-3,0.9-3.8c-1-1.8,0.3-4.2,2.4-4.2h15.6v15
				c0,0-4.5,4.1-6,5.5c-0.8,0.8-1.4,1.9-1.6,3c-0.1,0.5-0.1,0.9-0.3,1.3c-0.2,0.4-0.6,0.6-1,0.7c-0.7,0.2-1.5,0-2.2-0.3
				c-1.9-1-2.3-3.9-1.6-5.7l1-2.7c0,0-7,0-7.2,0C75.4,283,74.7,279.6,76.8,278.2z"/>
		</g>
	</g>
</g>
<g>
	<g>
		<g>
			<path class="st13" d="M98.5,345.5v-16.9c0-0.5,0.4-0.9,0.9-0.9h3.7c0.5,0,0.9,0.4,0.9,0.9v16.9c0,0.5-0.4,0.9-0.9,0.9h-3.7
				C98.9,346.4,98.5,346,98.5,345.5z"/>
		</g>
	</g>
	<g>
		<g>
			<path class="st13" d="M76.8,341.2c-0.7-1.3-0.3-3,0.9-3.8c-0.7-1.3-0.3-3,0.9-3.8c-1-1.8,0.3-4.2,2.4-4.2h15.6v15
				c0,0-4.5,4.1-6,5.5c-0.8,0.8-1.4,1.9-1.6,3c-0.1,0.5-0.1,0.9-0.3,1.3c-0.2,0.4-0.6,0.6-1,0.7c-0.7,0.2-1.5,0-2.2-0.3
				c-1.9-1-2.3-3.9-1.6-5.7l1-2.7c0,0-7,0-7.2,0C75.4,346,74.7,342.6,76.8,341.2z"/>
		</g>
	</g>
</g>
<g>
	<g>
		<g>
			<path class="st5" d="M102.1,158v-16.9c0-0.5,0.4-0.9,0.9-0.9h3.7c0.5,0,0.9,0.4,0.9,0.9V158c0,0.5-0.4,0.9-0.9,0.9h-3.7
				C102.6,158.9,102.1,158.5,102.1,158z"/>
		</g>
	</g>
	<g>
		<g>
			<path class="st5" d="M80.4,153.7c-0.7-1.3-0.3-3,0.9-3.8c-0.7-1.3-0.3-3,0.9-3.8c-1-1.8,0.3-4.2,2.4-4.2h15.6v15
				c0,0-4.5,4.1-6,5.5c-0.8,0.8-1.4,1.9-1.6,3c-0.1,0.5-0.1,0.9-0.3,1.3c-0.2,0.4-0.6,0.6-1,0.7c-0.7,0.2-1.5,0-2.2-0.3
				c-1.9-1-2.3-3.9-1.6-5.7l1-2.7c0,0-7,0-7.2,0C79,158.5,78.3,155.1,80.4,153.7z"/>
		</g>
	</g>
</g>
<path id="Path_173" class="st4" d="M252.7,65.5c-0.6,0-1,0.4-1,1v3h-3c-0.6,0-1,0.4-1,1s0.4,1,1,1h3v3c0,0.6,0.4,1,1,1
	c0.6,0,1-0.4,1-1v-3h3c0.6,0,1-0.4,1-1s-0.4-1-1-1h-3v-3C253.7,65.9,253.2,65.5,252.7,65.5z M252.7,60.5c-5.5,0-10,4.5-10,10
	s4.5,10,10,10c5.5,0,10-4.5,10-10S258.2,60.5,252.7,60.5z M252.7,78.5c-4.4,0-8-3.6-8-8s3.6-8,8-8c4.4,0,8,3.6,8,8
	C260.7,74.9,257.1,78.5,252.7,78.5z"/>
<path id="Path_163" class="st14" d="M301.2,92.2c0.5,0.5,1.3,0.5,1.8,0c0,0,0,0,0,0l8.3-8.3c0.4-0.4,0.4-1,0-1.4l-8.3-8.3
	c-0.5-0.5-1.3-0.5-1.8,0c-0.5,0.5-0.5,1.2,0,1.7l7.2,7.3l-7.3,7.3C300.7,90.9,300.7,91.7,301.2,92.2z"/>
<path id="Path_148" class="st5" d="M338.2,84.2h11.2l-4.9,4.9c-0.4,0.4-0.4,1,0,1.4c0.4,0.4,1,0.4,1.4,0l6.6-6.6
	c0.4-0.4,0.4-1,0-1.4l-6.6-6.6c-0.4-0.4-1-0.5-1.4-0.1s-0.5,1-0.1,1.4c0,0,0.1,0.1,0.1,0.1l4.9,4.9h-11.2c-0.6,0-1,0.4-1,1
	C337.2,83.8,337.7,84.2,338.2,84.2z"/>
<path id="Path_148_1_" class="st4" d="M389.1,83.2c0-0.6-0.4-1-1-1h-11.2l4.9-4.9c0,0,0.1-0.1,0.1-0.1c0.4-0.4,0.3-1.1-0.1-1.4
	s-1.1-0.3-1.4,0.1l-6.6,6.6c-0.4,0.4-0.4,1,0,1.4l6.6,6.6c0.4,0.4,1,0.4,1.4,0c0.4-0.4,0.4-1,0-1.4l-4.9-4.9h11.2
	C388.6,84.2,389.1,83.8,389.1,83.2z"/>
<path id="round-repeat-24px" class="st6" d="M430.8,78.2h10V80c0,0.3,0.2,0.5,0.5,0.5c0.1,0,0.3-0.1,0.3-0.1l2.8-2.8
	c0.2-0.2,0.2-0.5,0-0.7c0,0,0,0,0,0l-2.8-2.8c-0.2-0.2-0.5-0.2-0.7,0c-0.1,0.1-0.1,0.2-0.1,0.4v1.8h-11c-0.6,0-1,0.4-1,1v4
	c0,0.6,0.4,1,1,1s1-0.4,1-1L430.8,78.2L430.8,78.2z M440.8,88.2h-10v-1.8c0-0.3-0.2-0.5-0.5-0.5c-0.1,0-0.3,0.1-0.3,0.1l-2.8,2.8
	c-0.2,0.2-0.2,0.5,0,0.7c0,0,0,0,0,0l2.8,2.8c0.2,0.2,0.5,0.2,0.7,0c0.1-0.1,0.1-0.2,0.1-0.4v-1.8h11c0.6,0,1-0.4,1-1v-4
	c0-0.6-0.4-1-1-1s-1,0.4-1,1L440.8,88.2L440.8,88.2z"/>
<g>
	<path class="st15" d="M186.7,141.4c-4.9,0-9.1,3.2-11.1,7.5c-0.1,0.1-0.1,0.3,0,0.4c1.9,4.3,6.2,7.3,11.1,7.3s9.1-3,11.1-7.3
		c0.1-0.1,0.1-0.3,0-0.4C195.8,144.5,191.6,141.4,186.7,141.4z M186.7,153.9c-2.8,0-5-2-5-4.8c0-2.9,2.2-5.2,5-5.2
		c2.8,0,5,2.3,5,5.2S189.4,153.9,186.7,153.9z"/>
	<ellipse class="st15" cx="186.7" cy="149" rx="3.2" ry="3.3"/>
</g>
<path id="Path_6" class="st15" d="M234,144c2.7,0,5,2.1,5,4.9c0,0.5-0.1,1.1-0.2,1.6l3.1,3.1c1.4-1.2,2.5-2.8,3.2-4.5
	c-2.3-5.8-8.7-8.8-14.6-6.9l2.2,2.2C233,144.1,233.5,144,234,144z M224.7,140.6c-0.4,0.4-0.4,1,0,1.4l2,2c-1.6,1.3-2.9,3-3.7,5
	c2.4,6.1,9.2,9.1,15.3,6.7c0,0,0,0,0,0l2.7,2.7c0.4,0.4,1,0.5,1.4,0.1c0.4-0.4,0.5-1,0.1-1.4c0,0-0.1-0.1-0.1-0.1l-16.3-16.3
	C225.7,140.2,225.1,140.2,224.7,140.6z M234,154c-2.8,0-5-2.2-5-5c0-0.7,0.2-1.5,0.5-2.1l1.6,1.6c0,0.2-0.1,0.4-0.1,0.6
	c0,1.7,1.3,3,3,3c0.2,0,0.4,0,0.6-0.1l1.6,1.6C235.5,153.8,234.7,154,234,154z M237,148.6c-0.1-1.4-1.2-2.5-2.6-2.6L237,148.6z"/>
<path id="Path_203" d="M180.7,199.8h4.5c0.4,0,0.7-0.3,0.8-0.8v-6c0-0.4-0.3-0.7-0.8-0.8h-4.5c-0.4,0-0.7,0.3-0.8,0.8v6
	C179.9,199.4,180.2,199.8,180.7,199.8z M180.7,205.8h4.5c0.4,0,0.7-0.3,0.8-0.8v-3c0-0.4-0.3-0.7-0.8-0.8h-4.5
	c-0.4,0-0.7,0.3-0.8,0.8v3C179.9,205.4,180.2,205.8,180.7,205.8z M188.2,205.8h4.5c0.4,0,0.7-0.3,0.8-0.8v-6c0-0.4-0.3-0.7-0.8-0.8
	h-4.5c-0.4,0-0.7,0.3-0.8,0.8v6C187.4,205.4,187.7,205.8,188.2,205.8z M187.4,193v3c0,0.4,0.3,0.7,0.8,0.8h4.5
	c0.4,0,0.7-0.3,0.8-0.8v-3c0-0.4-0.3-0.7-0.8-0.8h-4.5C187.7,192.3,187.4,192.6,187.4,193z"/>
<path id="Path_199" d="M186.7,234c0.8,0,1.5-0.7,1.5-1.5h-3C185.2,233.3,185.8,234,186.7,234z M191.2,229.5v-3.8
	c0.2-2.2-1.3-4.2-3.4-4.7v-0.5c0-0.6-0.5-1.1-1.1-1.1c-0.6,0-1.1,0.5-1.1,1.1v0.5c-2.1,0.6-3.5,2.6-3.4,4.7v3.8l-1,1
	c-0.3,0.3-0.3,0.8,0,1.1c0.1,0.1,0.3,0.2,0.5,0.2h9.9c0.4,0,0.8-0.3,0.8-0.8c0-0.2-0.1-0.4-0.2-0.5L191.2,229.5z"/>
<path id="Path_45_2_" d="M192.4,252.1c-1.8-1.2-4.3-0.9-5.7,0.8c-1.4-1.7-3.9-2.1-5.7-0.8c-1.1,0.7-1.7,1.9-1.8,3.2
	c-0.1,2.9,2.5,5.2,6.4,8.8l0.1,0.1c0.6,0.5,1.4,0.5,2,0l0.1-0.1c3.9-3.6,6.5-5.9,6.4-8.8C194.1,254,193.5,252.8,192.4,252.1
	L192.4,252.1L192.4,252.1z"/>
<path id="Path_201" d="M194.2,284.6h-3.6l-3.3-4.9c-0.2-0.3-0.7-0.4-1-0.2c-0.1,0.1-0.1,0.1-0.2,0.2l-3.3,4.9h-3.6
	c-0.4,0-0.8,0.3-0.8,0.8c0,0.1,0,0.1,0,0.2l1.9,7c0.2,0.6,0.8,1.1,1.4,1.1h9.8c0.7,0,1.3-0.5,1.4-1.1l1.9-7l0-0.2
	C194.9,284.9,194.6,284.6,194.2,284.6z M186.7,281.4l2.1,3.2h-4.2L186.7,281.4z M186.7,290.6c-0.8,0-1.5-0.7-1.5-1.5
	c0-0.8,0.7-1.5,1.5-1.5c0.8,0,1.5,0.7,1.5,1.5C188.2,289.9,187.5,290.6,186.7,290.6C186.7,290.6,186.7,290.6,186.7,290.6
	L186.7,290.6z"/>
<path id="Path_205" d="M185.8,320.7c0.3,0.3,0.8,0.3,1.1,0c0,0,0,0,0,0l2.7-2.7c0.3-0.3,0.3-0.8,0-1.1c0,0,0,0,0,0l-2.7-2.7
	c-0.3-0.3-0.8-0.3-1.1,0c-0.3,0.3-0.3,0.7,0,1l1.4,1.4h-6.5c-0.4,0-0.8,0.3-0.8,0.8s0.3,0.8,0.8,0.8h6.5l-1.4,1.4
	C185.5,320,185.5,320.4,185.8,320.7z M191.9,310.8h-10.5c-0.8,0-1.5,0.7-1.5,1.5v2.3c0,0.4,0.3,0.8,0.8,0.8s0.8-0.3,0.8-0.8V313
	c0-0.4,0.3-0.7,0.8-0.8h9c0.4,0,0.7,0.3,0.8,0.8v9c0,0.4-0.3,0.7-0.8,0.8h-9c-0.4,0-0.7-0.3-0.8-0.8v-1.5c0-0.4-0.3-0.8-0.8-0.8
	s-0.8,0.3-0.8,0.8v2.3c0,0.8,0.7,1.5,1.5,1.5h10.5c0.8,0,1.5-0.7,1.5-1.5v-10.5C193.4,311.4,192.7,310.8,191.9,310.8z"/>
<path id="Path_49" class="st16" d="M289.4,160.7l-4.1-4.1c0.3-0.3,0.5-0.6,0.7-1c2.8-4.7,1.4-10.7-3.3-13.6s-10.7-1.4-13.6,3.3
	c-2.4,3.9-1.8,8.9,1.4,12.1c3.6,3.6,9.2,3.9,13.2,0.7l4.1,4.1c0.2,0.2,0.5,0.3,0.8,0.3c0.3,0,0.6-0.1,0.8-0.3
	C289.8,161.9,289.8,161.2,289.4,160.7z M285.3,150.5c0,2-0.8,4-2.3,5.4c-1.4,1.4-3.4,2.3-5.4,2.3c-2,0-4-0.8-5.4-2.3
	c-1.4-1.4-2.3-3.4-2.3-5.4c0-2,0.8-4,2.3-5.4c1.4-1.4,3.4-2.3,5.4-2.3c2,0,4,0.8,5.4,2.3C284.5,146.5,285.3,148.5,285.3,150.5z"/>
<path id="Path_101" class="st17" d="M337.9,153.8l2.6-2.6c0.4-0.4,0.4-1,0-1.4l-2.6-2.6c-0.4-0.4-1-0.4-1.4,0
	c-0.2,0.2-0.3,0.4-0.3,0.7v5.2c0,0.6,0.4,1,1,1C337.5,154.1,337.7,154,337.9,153.8z"/>
<path id="Compound_Path" class="st18" d="M406.2,145.5h-3v-2.2c0-2.7-2.2-4.9-4.9-4.9c-2.7,0-4.9,2.2-4.9,4.9v2.2h-3.3
	c-0.5,0-0.8,0.4-0.8,0.8c0,0,0,0,0,0v12c0,2.3,1.8,4.1,4.1,4.1h9.5c2.3,0,4.1-1.8,4.1-4.1l0,0v-12
	C407.1,145.9,406.7,145.5,406.2,145.5L406.2,145.5z M395.1,143.3c0-1.8,1.4-3.3,3.2-3.3c1.8,0,3.3,1.4,3.3,3.2c0,0,0,0.1,0,0.1v2.2
	h-6.5V143.3z M405.4,158.3c0,1.4-1.1,2.5-2.5,2.5h-9.5c-1.4,0-2.5-1.1-2.5-2.5v-11.2c2.5,3.5,12.3,3.5,14.5,0V158.3z"/>
</svg>
